<svg id="Layer_1" enable-background="new 0 0 512 512" height="512" viewBox="0 0 512 512" width="512" xmlns="http://www.w3.org/2000/svg"><path d="m470.962 384.617c19.143-34.912 30.036-74.99 30.036-117.615 0-135.309-109.689-244.998-244.998-244.998s-244.998 109.689-244.998 244.998c0 42.625 10.894 82.703 30.037 117.615z" fill="#ffc839"/><path d="m324.782 276.915c-42.139-26.919-96.091-26.801-138.112.302v14.193h138.63v-14.164z" fill="#222d5b"/><path d="m278.004 343.668 37.446-58.921c-5.643-10.386-7.325-24.457-7.687-34.972-5.228 6.09-10.716 11.184-15.958 15.255-10.215 7.932-22.821 12.241-35.804 12.241-12.984 0-25.589-4.309-35.805-12.241-5.243-4.072-10.73-9.166-15.959-15.256-.362 10.514-2.044 24.585-7.686 34.971l37.447 58.923c2.001 2.874 1.691 6.704-.747 9.242l-1.101 1.146.258.217 22.672 77.363 24.83-77.521-1.158-1.205c-2.439-2.538-2.749-6.367-.748-9.242z" fill="#f9ba8f"/><path d="m232.15 354.056.258.217 22.672 77.363 19.363-60.454c-11.531-1.158-19.637-7.415-25.273-14.909-9.579-12.738-6.274-29.064-3.181-44.699 3.159-15.97 3.18-24.697 5.207-34.5-11.266-.926-22.051-5.094-31.001-12.044-5.243-4.072-10.73-9.166-15.959-15.255-.362 10.514-2.044 24.585-7.686 34.971l37.447 58.923c2.001 2.874 1.691 6.704-.747 9.242z" fill="#fcad6d"/><path d="m238.496 1.083c-52.174 7.109-57.132 36.689-57.155 47.542-.005 2.276-1.266 4.385-3.312 5.381-27.139 13.202-12.507 76.831-12.507 76.831 2.725.182 5.578 1.286 7.706 2.316.521-3.242 1.371-6.434 2.572-9.52.915-2.351 2.06-4.726 3.49-6.97 2.482-3.894 3.612-8.487 3.275-13.079-.975-13.274-.506-39.43 17.016-47.314 14.844-6.679 33.053-2.812 44.664 1.05 7.541 2.508 15.71 2.508 23.251 0 11.612-3.861 29.82-7.729 44.664-1.05 17.471 7.861 17.989 33.892 17.025 47.201-.335 4.627.765 9.268 3.266 13.192 1.477 2.316 2.648 4.773 3.578 7.198 1.155 3.015 1.978 6.13 2.486 9.293 2.682-1.299 6.515-2.714 9.794-2.251.401-13.913 1.686-28.912 1.686-28.912 15.461-75.725-55.322-108.562-111.499-100.908z" fill="#5e5057"/><path d="m243.47 57.071c-.155-.276-.3-.553-.463-.829-21.795-36.75 8.982-55.954 8.982-55.954l-.328-.249c-4.444.109-8.847.456-13.164 1.044-52.173 7.109-57.132 36.689-57.156 47.542-.005 2.276-1.266 4.385-3.312 5.381-27.139 13.202-12.507 76.831-12.507 76.831 2.725.182 5.578 1.286 7.706 2.316.521-3.242 1.371-6.434 2.572-9.52.915-2.351 2.06-4.726 3.49-6.97 2.482-3.894 3.612-8.487 3.275-13.079-.975-13.274-.506-39.431 17.016-47.315 14.524-6.535 32.254-2.971 43.889.802z" fill="#4a3940"/><path d="m354.54 132.482c-4.064-3.724-12.158-1.837-15.658.444.767 4.775.81 9.659.148 14.483l-4.13 30.08c0 2.425-.077 4.804-.217 7.141 10.071 3.038 15.073-6.004 15.916-12.208.363-2.671.956-5.304 1.778-7.872 2.68-8.368 12.344-22.738 2.163-32.068z" fill="#fcad6d"/><path d="m345.329 163.109c-3.06 0-5.867-1.085-8.058-2.891l-2.371 17.27c0 2.425-.077 4.804-.217 7.141 10.071 3.038 15.073-6.003 15.916-12.208.363-2.671.956-5.304 1.779-7.872.511-1.596 1.277-3.411 2.11-5.367-2.308 2.415-5.554 3.927-9.159 3.927z" fill="#fd995b"/><path d="m157.937 132.482c4.064-3.724 12.158-1.837 15.658.444-.766 4.775-.81 9.659-.148 14.483l4.13 30.08c0 2.425.076 4.804.217 7.141-10.071 3.038-15.073-6.004-15.916-12.208-.363-2.671-.956-5.304-1.779-7.872-2.679-8.368-12.343-22.738-2.162-32.068z" fill="#fcad6d"/><path d="m175.083 159.323c-2.299 2.335-5.494 3.786-9.03 3.786-2.777 0-5.337-.903-7.426-2.418.579 1.383 1.096 2.681 1.472 3.858.823 2.569 1.416 5.201 1.778 7.872.843 6.205 5.845 15.246 15.916 12.208-.141-2.338-.217-4.717-.217-7.141z" fill="#fd995b"/><path d="m336.634 123.628c-1.026-2.678-2.25-5.139-3.636-7.314-2.37-3.719-3.495-8.264-3.167-12.797 1.048-14.471.181-39.926-17.405-47.84-14.77-6.644-32.696-3.11-45.133 1.026-7.366 2.452-15.48 2.45-22.846 0-12.438-4.137-30.364-7.674-45.133-1.026-7.563 3.403-19.879 14.159-17.397 47.955.327 4.452-.8 8.956-3.174 12.683-1.347 2.112-2.541 4.495-3.548 7.083-2.95 7.578-3.904 15.987-2.76 24.32l4.125 29.998c0 49.679 30.058 78.382 42.981 88.417 10.314 8.011 23.217 12.423 36.33 12.423s26.015-4.412 36.33-12.423c12.923-10.035 42.98-38.739 42.974-88.328l4.131-30.08c1.131-8.25.208-16.583-2.672-24.097z" fill="#f9ba8f"/><path d="m264.389 266.132c-12.923-10.035-42.981-38.737-42.981-88.417l-4.125-29.998c-1.144-8.333-.189-16.742 2.76-24.32 1.007-2.587 2.201-4.971 3.548-7.083 2.374-3.726 3.502-8.23 3.174-12.683-.427-5.814-.411-10.936-.062-15.466-8.058-4.951-13.132-14.28-11.87-24.676.515-4.244 2.117-8.167 4.505-11.496-6.8-.137-13.7.835-20.025 3.682-7.563 3.403-19.879 14.159-17.397 47.955.327 4.452-.8 8.956-3.174 12.683-1.347 2.112-2.541 4.495-3.548 7.083-2.95 7.578-3.904 15.987-2.76 24.32l4.124 29.998c0 49.679 30.058 78.382 42.981 88.417 10.314 8.011 23.217 12.423 36.33 12.423 7.71 0 15.343-1.536 22.424-4.422-4.961-2.02-9.654-4.699-13.904-8z" fill="#fcad6d"/><path d="m232.201 86.722c-3.769-3.704-5.923-9.041-5.279-14.876.913-8.264 7.586-14.922 15.824-15.864l-9.034-14.269c-11.003 1.7-19.788 10.649-21.139 21.778-1.527 12.574 6.203 23.607 17.29 27.192 1.035.335 2.169-.089 2.737-1.017.582-.952.396-2.162-.399-2.944z" fill="#4a3940"/><path d="m277.51 123.868c-10.496 3.394-15.858 15.973-9.293 26.309 7.962 12.537 23.04 28.97 42.014 28.97s25.412-18.466 25.412-29.647-6.946-29.647-31.341-29.647c-11.338-.001-20.371 1.939-26.792 4.015z" fill="#a05838"/><path d="m291.674 150.177c-6.565-10.337-1.203-22.915 9.293-26.309 3.479-1.125 7.75-2.198 12.715-2.956-2.797-.675-5.906-1.06-9.38-1.06-11.338 0-20.371 1.939-26.792 4.016-10.496 3.394-15.858 15.973-9.293 26.309 7.962 12.537 23.04 28.97 42.014 28.97 4.205 0 7.792-.91 10.832-2.444-13.007-5.036-23.288-16.921-29.389-26.526z" fill="#934a2e"/><path d="m234.49 123.868c10.496 3.394 15.858 15.973 9.293 26.309-7.962 12.537-23.04 28.97-42.014 28.97s-25.412-18.466-25.412-29.647 6.946-29.647 31.341-29.647c11.338-.001 20.371 1.939 26.792 4.015z" fill="#a05838"/><path d="m198.952 149.499c0-9.651 5.186-24.719 22.289-28.665-4.063-.595-8.566-.982-13.543-.982-24.395 0-31.341 18.466-31.341 29.647s6.438 29.647 25.412 29.647c4.259 0 8.318-.833 12.148-2.259-10.966-5.262-14.965-18.581-14.965-27.388z" fill="#934a2e"/><path d="m260.609 142.827c-2.801-1.823-6.42-1.822-9.221-.001-.09.059-.182.115-.276.168-2.681 1.531-6.096.601-7.628-2.08-1.489-2.605-.652-5.904 1.858-7.493 6.499-4.2 14.88-4.188 21.367.036 2.588 1.684 3.319 5.148 1.635 7.735-1.684 2.586-5.145 3.32-7.735 1.635z" fill="#ffdd40"/><path d="m233.175 352.91-64.396-54.35c-13.51 4.702-26.426 10.68-39.198 17.882-7.872 4.439-11.426 7.03-18.105 7.577-42.032 3.436-61.835 30.988-70.992 59.598 3.203 5.906 6.642 11.665 10.304 17.266l172.467 108.94c10.713 1.43 21.641 2.177 32.745 2.177 2.611 0 5.21-.055 7.801-.136v-54.451z" fill="#e80054"/><path d="m120.944 445.197c0-24.378 0-47.219 0-58.218 0-29.64 54.054-40.026 54.054-40.026l-14.751-45.21c-10.456 4.128-20.608 9.028-30.666 14.699-7.872 4.439-11.426 7.03-18.105 7.577-42.032 3.436-61.835 30.988-70.992 59.598 3.211 5.922 6.681 11.682 10.354 17.297z" fill="#cc0053"/><path d="m400.524 324.019c-6.68-.546-10.233-3.138-18.105-7.577-12.773-7.202-25.689-13.18-39.198-17.882l-64.396 54.35-32.208 100.553c-.983 2.611-1.486 5.378-1.486 8.168v50.115c3.605.159 7.226.254 10.869.254 93.091 0 174.055-51.921 215.515-128.383-9.156-28.61-28.959-56.162-70.991-59.598z" fill="#ff4155"/><path d="m316.776 377.677c-2.567 4.186-8.571 4.808-11.995 1.243l-2.632-2.739c-13.464 23.69-29.52 36.893-46.148 36.893-16.629 0-32.686-13.204-46.149-36.893l-2.631 2.739c-3.425 3.565-9.429 2.943-11.996-1.243l-3.514-5.73c17.084 35.599 39.509 55.275 64.29 55.275 24.78 0 47.205-19.676 64.289-55.275z" fill="#ffdd40"/><path d="m276.299 406.415c-6.571 4.369-13.384 6.659-20.297 6.659-16.629 0-32.686-13.204-46.149-36.893l-2.631 2.739c-3.425 3.565-9.429 2.943-11.996-1.243l-3.514-5.73c17.084 35.599 39.509 55.275 64.29 55.275 10.046 0 19.704-3.235 28.777-9.453-12.134-.001-8.48-11.354-8.48-11.354z" fill="#ffb332"/><path d="m235.128 343.668-41.417-65.169c-1.512-2.171-4.52-2.81-6.832-1.45l-33.398 25.313c-2.373 1.396-3.142 4.379-1.725 6.69l43.469 70.887c2.567 4.186 8.571 4.808 11.996 1.243l27.16-28.271c2.438-2.539 2.748-6.368.747-9.243z" fill="#2d3c6b"/><path d="m276.874 343.668 41.417-65.169c1.512-2.171 4.52-2.81 6.832-1.45l33.398 25.313c2.373 1.396 3.142 4.379 1.725 6.69l-43.469 70.887c-2.567 4.186-8.571 4.808-11.996 1.243l-27.16-28.271c-2.438-2.539-2.748-6.368-.747-9.243z" fill="#3c5082"/><path d="m263.505 457.347-10.34-3.908c-.045-.017-.089-.033-.135-.05-3.81-1.346-4.195-4.09-3.848-6.156.491-2.919 2.947-6.074 7.181-6.102 4.685-.03 5.977.156 9.354 2.338 2.917 1.884 6.899 1.47 9.079-1.232 2.528-3.132 1.754-7.674-1.53-9.821-3.773-2.468-6.688-3.672-9.928-4.229-.387-.067-.648-.402-.648-.794 0-3.664-2.824-6.858-6.486-6.968-3.789-.113-6.895 2.924-6.895 6.688v1.318c0 .335-.21.629-.521.751-7.145 2.806-11.714 9.352-12.802 15.831-1.567 9.314 3.459 17.729 12.51 20.964l10.34 3.908c.045.017.089.034.135.05 3.81 1.346 4.195 4.09 3.849 6.156-.491 2.919-2.948 6.074-7.181 6.102-4.696.039-5.978-.156-9.357-2.341-2.914-1.884-6.892-1.468-9.073 1.231-2.531 3.132-1.757 7.676 1.528 9.824 3.753 2.456 6.657 3.66 9.876 4.221.401.07.698.409.698.817v.578c0 3.664 2.823 6.859 6.486 6.968 3.789.113 6.896-2.925 6.896-6.688v-1.899c0-.342.214-.642.532-.767 7.139-2.809 11.704-9.351 12.792-15.827 1.565-9.312-3.461-17.727-12.512-20.963z" fill="#ffdd40"/><path d="m325.248 137.198c-.295 1.487-1.74 2.454-3.227 2.159s-2.454-1.74-2.159-3.227 1.74-2.454 3.227-2.159c1.488.295 2.454 1.74 2.159 3.227z" fill="#b76c4e"/><path d="m306.312 142.396c.648-3.27 3.825-5.396 7.095-4.747 3.27.648 5.396 3.825 4.747 7.095-.648 3.27-3.825 5.396-7.095 4.747-3.27-.648-5.396-3.825-4.747-7.095z" fill="#b76c4e"/><path d="m305.541 298.56-28.668 45.108c-2.001 2.874-1.691 6.704.747 9.242l27.16 28.271c3.425 3.565 9.429 2.943 11.996-1.243l27.189-44.338c-39.253 7.982-38.424-37.04-38.424-37.04z" fill="#2d3c6b"/><path d="m253.165 453.439c-.045-.017-.089-.033-.135-.05-3.81-1.346-4.195-4.09-3.848-6.156.491-2.919 2.948-6.074 7.181-6.102 4.685-.03 5.977.156 9.354 2.338 2.917 1.884 6.899 1.47 9.079-1.232 2.529-3.132 1.754-7.674-1.53-9.821-3.773-2.468-6.688-3.672-9.928-4.229-.386-.066-.648-.402-.648-.794 0-3.664-2.824-6.858-6.486-6.968-3.789-.113-6.895 2.924-6.895 6.688v1.318c0 .335-.21.629-.521.751-7.145 2.806-11.714 9.352-12.802 15.831-1.567 9.314 3.459 17.729 12.51 20.964l9.316 3.521c-4.854-9.905 5.693-12.154 5.693-12.154z" fill="#ffb332"/><path d="m235.456 399.536-64.742-11.416c-4.976-.877-9.721 2.445-10.598 7.421l-15.796 89.581c24.82 12.733 52.098 21.352 80.933 24.962l17.624-99.95c.877-4.976-2.445-9.721-7.421-10.598z" fill="#fcf9f0"/><path d="m170.714 388.12c-4.976-.877-9.72 2.445-10.598 7.421l-15.795 89.581c17.389 8.921 35.986 15.817 55.478 20.392-.115-.208-.278-.394-.49-.537-4.239-2.86-3.555-10.713-3.555-10.713s-.234-53.717 2.898-69.957c2.061-10.691 6.26-13.875 8.888-14.802.995-.351 1.39-1.508.864-2.424-4.303-7.491 3.963-11.008 3.963-11.008l-.038-.615z" fill="#f9efdc"/><path d="m225.603 411.434-49.701-8.763c-1.826-.322-3.567.897-3.889 2.723l-13.511 76.623 25.028 19.05c6.937 2.145 13.998 4.009 21.184 5.54l3.984.702c1.826.322 3.567-.897 3.889-2.723l15.74-89.263c.321-1.826-.898-3.567-2.724-3.889z" fill="#3c5082"/><path d="m175.903 402.67c-1.826-.322-3.567.897-3.889 2.723l-13.51 76.623 25.077 19.088c5.321 1.645 10.719 3.117 16.189 4.402-.113-.202-.255-.39-.461-.53-4.239-2.86-3.555-10.713-3.555-10.713s-.233-53.717 2.898-69.957c2.061-10.691 6.26-13.875 8.888-14.802.525-.185.877-.596 1.02-1.076z" fill="#2d3c6b"/><path d="m174.454 386.236h-65.741c-5.052 0-9.148 4.096-9.148 9.148v60.168c24.454 20.312 52.92 35.958 84.038 45.569v-105.736c-.001-5.053-4.097-9.149-9.149-9.149z" fill="#fcf9f0"/><path d="m149.773 386.236h-41.06c-5.052 0-9.148 4.096-9.148 9.148v60.168c16.06 13.34 33.855 24.656 52.992 33.583-.373-1.445-.487-2.511-.487-2.511s-10.486-53.14-10.486-69.816c0-10.979 3.549-14.932 5.974-16.352.919-.538 1.088-1.759.393-2.565-5.691-6.594 1.822-11.655 1.822-11.655z" fill="#f9efdc"/><path d="m166.817 399.664h-50.467c-1.854 0-3.357 1.503-3.357 3.357v56.648l25.242 22.196c9.891 5.431 20.194 10.206 30.856 14.253.662-.613 1.083-1.483 1.083-2.456v-90.64c0-1.854-1.503-3.358-3.357-3.358z" fill="#3c5082"/><path d="m138.22 481.852c4.689 2.575 9.466 5.011 14.336 7.283-.373-1.445-.487-2.511-.487-2.511s-10.486-53.14-10.486-69.816c0-10.979 3.549-14.932 5.974-16.352.328-.193.557-.474.689-.791h-31.896c-1.854 0-3.357 1.503-3.357 3.357v56.648z" fill="#2d3c6b"/><path d="m112.453 388.12-62.766 11.067c22.106 34.432 52.601 62.96 88.592 82.718l-15.228-86.364c-.877-4.976-5.622-8.299-10.598-7.421z" fill="#fcf9f0"/><path d="m77.595 394.266-27.908 4.921c10.439 16.259 22.752 31.198 36.626 44.524l-6.387-36.221c-8.431-5.903-2.331-13.224-2.331-13.224z" fill="#f9efdc"/><path d="m107.264 402.67-49.223 8.679c17.706 24.241 39.749 45.109 64.998 61.455l-11.886-67.411c-.322-1.826-2.063-3.045-3.889-2.723z" fill="#3c5082"/><path d="m74.017 431.022-2.126-12.056c-.95-5.388 2.647-10.526 8.035-11.476l-21.885 3.859c4.991 6.833 10.321 13.402 15.976 19.673z" fill="#2d3c6b"/><g fill="#ffdd40"><path d="m389.569 61.6c6.748 29.162 13.941 88.395-11.081 164.24-4.963 15.044 1.697 31.524 15.888 38.563 12.213 6.059 27.763 12.141 43.825 14.152 22.987 2.878 43.45 18.782 57.74 38.185 3.312-16.061 5.056-32.696 5.056-49.738.001-86.031-44.351-161.693-111.428-205.402z"/><path d="m122.431 61.6c-6.748 29.162-13.941 88.395 11.081 164.24 4.963 15.044-1.697 31.524-15.888 38.563-12.213 6.059-27.763 12.141-43.825 14.152-22.987 2.878-43.45 18.782-57.74 38.185-3.312-16.061-5.056-32.696-5.056-49.738-.001-86.031 44.351-161.693 111.428-205.402z"/></g></svg>