<?xml version="1.0" encoding="iso-8859-1"?>
<!-- Generator: Adobe Illustrator 19.0.0, SVG Export Plug-In . SVG Version: 6.00 Build 0)  -->
<svg version="1.1" id="Capa_1" xmlns="http://www.w3.org/2000/svg" xmlns:xlink="http://www.w3.org/1999/xlink" x="0px" y="0px"
	 viewBox="0 0 512 512" style="enable-background:new 0 0 512 512;" xml:space="preserve">
<path style="fill:#FF5368;" d="M238.959,8.264l-73.068,92.629c-6.224,7.89-6.224,19.023,0,26.913l73.068,92.629
	c8.692,11.019,25.39,11.019,34.081,0l73.068-92.629c6.224-7.89,6.224-19.023,0-26.913L273.041,8.264
	C264.35-2.755,247.65-2.755,238.959,8.264z"/>
<path style="fill:#C5324F;" d="M273.041,8.264c-8.692-11.019-25.39-11.019-34.081,0l-2.64,3.347l65.943,83.598
	c8.854,11.225,8.854,27.057,0,38.28l-65.943,83.598l2.64,3.348c8.692,11.019,25.39,11.019,34.081,0l73.068-92.63
	c6.224-7.89,6.224-19.023,0-26.913L273.041,8.264z"/>
<path style="fill:#6C7A88;" d="M161.716,201.75c-0.469-32.311-26.791-58.364-59.214-58.364c-32.522,0-58.911,26.212-59.221,58.66
	C18.32,209.014,0,231.905,0,259.091c0,32.714,26.521,59.235,59.235,59.235c12.653,0,24.367-3.982,33.991-10.74h19.59
	c9.623,6.758,21.338,10.74,33.99,10.74c32.714,0,59.235-26.521,59.235-59.235C206.041,231.526,187.213,208.362,161.716,201.75z"/>
<path style="fill:#35404A;" d="M202.894,240.02L202.894,240.02c-6.37-18.736-21.854-33.259-41.178-38.269
	c-0.469-32.311-26.791-58.364-59.214-58.364c0,15.491,6.896,28.363,17.833,37.286c6.279,5.122,10.352,12.87,10.477,21.526l0,0
	c0.202,13.913,9.676,25.975,23.145,29.467c12.469,3.235,21.178,14.511,21.178,27.425c0,9.597-6.727,17.879-16.119,19.854
	c-3.939,0.828-8.024,1.264-12.212,1.265c-24.162,0-25.835-10.718-44.519-10.74c-5.407-0.006-10.71,1.411-15.493,3.934
	c-26.038,13.734-57.415,5.911-74.486-16.24c-4.089-5.304-12.531-2.278-12.256,4.413c0.008,0.207,0.019,0.415,0.029,0.623
	c1.575,30.611,26.757,55.208,57.396,56.1c13.324,0.387,25.682-3.644,35.749-10.713l-19.868,26.19
	c-5.865,7.432-0.572,18.353,8.896,18.353h41.537c9.467,0,14.76-10.921,8.896-18.353l-19.868-26.19
	c10.546,7.407,23.606,11.477,37.657,10.628c19.724-1.192,36.975-12.208,46.831-28.219h0.04
	C206.23,275.497,208.691,257.408,202.894,240.02z"/>
<path style="fill:#FF5368;" d="M339.017,354.927c-23.492-26.261-62.998-26.813-87.163-1.653
	c-24.164-25.159-63.67-24.608-87.163,1.653c-22.377,25.015-20.658,64.398,2.558,88.57l52.493,54.654
	c17.735,18.465,46.488,18.465,64.222,0l52.493-54.654C359.674,419.325,361.394,379.942,339.017,354.927z"/>
<path style="fill:#C5324F;" d="M339.017,354.927c-5.303-5.928-11.427-10.534-18-13.842c12.301,24.221,7.959,55.187-11.51,75.459
	l-52.493,54.654c-15.752,16.4-40.19,18.221-57.886,5.487l20.617,21.466c17.735,18.465,46.488,18.465,64.222,0l52.493-54.654
	C359.674,419.325,361.394,379.942,339.017,354.927z"/>
<path style="fill:#6C7A88;" d="M321.819,298.633c23.492,25.956,62.998,26.5,87.163,1.634c24.164,24.866,63.67,24.322,87.163-1.634
	c22.377-24.724,20.658-63.649-2.558-87.54l-52.493-54.019c-17.735-18.25-46.488-18.25-64.223,0l-52.493,54.019
	C301.162,234.984,299.443,273.909,321.819,298.633z"/>
<path style="fill:#35404A;" d="M493.586,211.094l-52.493-54.02c-7.775-8-17.667-12.492-27.819-13.478
	c-5.505,11.366-3.656,25.435,5.655,35.017l52.493,54.02c0.36,0.369,0.709,0.746,1.048,1.128
	c16.219,18.281,2.144,47.273-22.286,46.615c-8.968-0.242-17.893-2.523-26.065-6.846c-9.399-4.973-20.753-5.069-30.14-0.071
	c-23.412,12.462-53.072,8.149-72.16-12.941c-0.062-0.068-0.123-0.136-0.183-0.204c-5.686-6.34-16.192-1.506-14.824,6.899
	c1.858,11.42,6.818,22.371,15.008,31.421c20.611,22.772,53.546,25.98,77.634,9.632l-20.136,25.512
	c-5.865,7.432-0.572,18.353,8.896,18.353h41.537c9.467,0,14.76-10.921,8.896-18.353l-20.137-25.514
	c24.099,16.353,57.04,13.114,77.629-9.624C518.41,274.042,516.886,235.071,493.586,211.094z"/>
<g>
</g>
<g>
</g>
<g>
</g>
<g>
</g>
<g>
</g>
<g>
</g>
<g>
</g>
<g>
</g>
<g>
</g>
<g>
</g>
<g>
</g>
<g>
</g>
<g>
</g>
<g>
</g>
<g>
</g>
</svg>
